<?xml version="1.0" encoding="UTF-8"?>
<svg id="Layer_1" data-name="Layer 1" xmlns="http://www.w3.org/2000/svg" viewBox="0 0 296.12 296.12">
  <path d="m148.06,0C66.29,0,0,66.29,0,148.06s66.29,148.06,148.06,148.06,148.06-66.29,148.06-148.06S229.83,0,148.06,0ZM55.15,234.06c.55-2.16.96-3.88,1.44-5.58,3.55-12.66,7.05-25.34,10.72-37.97.59-2.05.22-3.62-.74-5.35-8.35-15.06-12.11-31.35-11.22-48.39.98-18.65,6.98-35.81,18.28-50.94,14.1-18.86,32.77-30.61,55.64-35.6,6.25-1.36,12.78-2.36,19.13-2.17,16.79.51,32.76,4.48,47.29,13.39,23.17,14.2,37.88,34.61,43.27,61.11,5.55,27.3-.46,52.39-17.22,74.76-2.46,3.29-4.72,6.87-7.73,9.58-4.64,4.18-9.68,7.98-14.85,11.5-12.54,8.52-26.55,13.3-41.56,14.98-17.96,2.01-35.01-1.46-51.12-9.5-2.46-1.23-4.59-1.58-7.29-.86-13.61,3.64-27.28,7.06-40.94,10.54-.86.22-1.77.29-3.1.49Zm23.4-22.72c8.1-2.07,15.69-3.86,23.19-6,2.66-.76,4.68-.37,6.97,1.02,15.4,9.35,32.13,12.45,49.91,10.16,19.92-2.57,36.1-12.15,48.66-27.46,13.7-16.7,19.06-36.16,16.42-57.64-2.56-20.84-12.51-37.68-28.9-50.53-18.73-14.69-40.14-18.98-63.26-14.24-17.21,3.53-31.3,12.67-42.41,26.16-13.96,16.96-19.14,36.65-16.68,58.29,1.31,11.52,5.48,22.18,11.9,31.87,1.17,1.76,1.29,3.31.7,5.28-2.22,7.49-4.27,15.04-6.53,23.09Zm37.81-114.23c2.36.23,4.26.08,5.89.68,1.29.48,2.7,1.67,3.28,2.91,2.81,6.09,5.33,12.3,8.01,18.45.93,2.14.62,3.96-.94,5.69-1.96,2.17-3.75,4.5-5.77,6.61-1.54,1.6-1.47,3.04-.43,4.85,5.65,9.79,13.51,17.3,23.31,22.8,2.39,1.34,4.99,2.31,7.44,3.55,2.28,1.15,3.89.48,5.31-1.47,1.87-2.57,3.85-5.06,5.79-7.59,1.95-2.54,3.35-2.95,6.25-1.63,6.11,2.77,12.18,5.61,18.27,8.43,2.25,1.04,3.07,2.65,2.61,5.2-2.11,11.72-8.11,17.55-19.52,19.99-4.79,1.03-8.93-.4-13.13-1.63-20.21-5.9-36.08-18.06-48.88-34.53-5.75-7.41-10.65-15.26-12.27-24.68-1.43-8.29-.02-15.89,5.92-22.3,3.87-4.17,5.65-5.28,8.84-5.34Z"/>
</svg>