<?xml version="1.0" encoding="UTF-8"?>
<svg id="Layer_1" data-name="Layer 1" xmlns="http://www.w3.org/2000/svg" viewBox="0 0 296.12 296.12">
  <g id="xgdNzw">
    <g>
      <path d="m148.08,296.12C65.75,296.12-.02,229.75,0,146.7.02,65.45,67.04-.04,150.11,0c80.88.04,146.07,67.37,146.01,150.79-.06,79.16-67.47,145.32-148.04,145.32Zm-.26-82.52c26.61,0,53.21.01,79.82,0,9.49,0,10.99-1.39,11-10.59.04-36.7.04-73.4,0-110.09-.01-8.86-1.6-10.39-10.5-10.39-53.44-.02-106.88-.02-160.32,0-8.77,0-10.3,1.56-10.31,10.58-.04,36.7-.04,73.4,0,110.09.01,8.87,1.6,10.38,10.5,10.39,26.61.03,53.21.01,79.82.01Z"/>
      <path d="m85.39,100.65h125.22c-21.4,18.74-41.75,36.56-62.52,54.75-20.5-17.9-40.94-35.75-62.7-54.75Z"/>
      <path d="m87.39,197.81c14.84-13.24,28.69-25.59,42.64-38.04,4.01,3.48,7.88,6.71,11.61,10.1,4.29,3.9,8.42,3.99,12.74.06,3.73-3.39,7.59-6.64,11.9-10.38,14.12,12.59,28.2,25.14,42.91,38.26h-121.8Z"/>
      <path d="m118.68,149.71c-15.19,13.53-29.99,26.72-45.54,40.58v-80.28c15.35,13.38,30.09,26.22,45.54,39.69Z"/>
      <path d="m222.76,189.73c-15.56-13.87-30.25-26.97-45.12-40.23,15.02-13.09,29.81-25.98,45.12-39.33v79.57Z"/>
    </g>
  </g>
</svg>