<?xml version="1.0" encoding="UTF-8"?>
<svg id="Layer_1" data-name="Layer 1" xmlns="http://www.w3.org/2000/svg" viewBox="0 0 296.12 296.12">
  <path d="m148.09,119.33c-15.93-.02-28.77,12.81-28.75,28.75.01,15.94,12.86,28.76,28.78,28.72,15.95-.05,28.75-12.92,28.67-28.83-.08-15.9-12.82-28.61-28.7-28.64Z"/>
  <path d="m218.15,110.58c0-5.36-.94-10.51-3.51-15.23-5.77-10.6-14.65-16.83-26.78-17.21-13.25-.41-26.53-.09-39.8-.09v-.08c-12.38,0-24.76,0-37.14,0-3.79,0-7.51.41-11.13,1.61-12.3,4.07-21.94,15.97-21.84,31.17.17,24.87.05,49.75.04,74.62,0,3.74.43,7.4,1.61,10.97,4.08,12.34,16.02,21.95,31.16,21.85,24.87-.17,49.74-.05,74.61-.04,3.74,0,7.4-.43,10.97-1.61,12.39-4.12,21.92-16.02,21.84-31-.14-24.99-.05-49.97-.03-74.96Zm-69.99,81.44c-24.24.06-44.07-19.74-44.05-43.99.02-24.19,19.76-43.93,43.94-43.93,24.18,0,43.93,19.72,43.97,43.91.03,24.18-19.68,43.96-43.86,44.02Zm45.77-78.58c-6.14.03-11.18-4.93-11.19-11.04-.02-6.06,5.08-11.16,11.13-11.15,6.07.01,11.16,5.13,11.12,11.17-.04,6.04-5,10.98-11.06,11.02Z"/>
  <path d="m148.06,0C66.29,0,0,66.29,0,148.06s66.29,148.06,148.06,148.06,148.06-66.29,148.06-148.06S229.83,0,148.06,0Zm85.28,190.38c-.3,1.68-.51,3.38-.9,5.03-4.47,19.02-16.09,31.25-34.91,36.54-2.33.66-4.77.94-7.16,1.4h-84.61c-1.69-.3-3.38-.56-5.06-.9-22.21-4.56-37.85-23.62-37.89-46.3-.05-25.37-.04-50.74.03-76.12,0-3.09.27-6.23.87-9.25,4.46-22.29,23.59-37.96,46.36-37.99,25.31-.04,50.62-.04,75.93.03,3.14,0,6.36.2,9.41.91,19.04,4.38,31.25,16.06,36.53,34.89.65,2.33.94,4.75,1.4,7.13v84.62Z"/>
</svg>