<?xml version="1.0" encoding="UTF-8"?>
<svg id="Layer_1" data-name="Layer 1" xmlns="http://www.w3.org/2000/svg" viewBox="0 0 296.12 296.12">
  <path d="m148.06,0C66.29,0,0,66.29,0,148.06s66.29,148.06,148.06,148.06,148.06-66.29,148.06-148.06S229.83,0,148.06,0Zm39.17,147.52h-25.78v91.61h-37.94v-91.44h-18.18v-32.39h17.98c0-5.08-.17-9.74.04-14.39.27-6,.15-12.13,1.42-17.94,3.45-15.82,14.62-25.79,30.8-26.94,11.3-.8,22.7-.15,34.28-.15v31.3c-6.18,0-12.18,0-18.18,0-7.81.01-10.3,2.55-10.32,10.48-.01,5.68,0,11.35,0,17.6h29.15c-1.11,10.85-2.18,21.34-3.29,32.26Z"/>
</svg>