<?xml version="1.0" encoding="UTF-8"?>
<svg id="Layer_1" data-name="Layer 1" xmlns="http://www.w3.org/2000/svg" viewBox="0 0 296.12 296.12">
  <path d="m148.06,0C66.29,0,0,66.29,0,148.06s66.29,148.06,148.06,148.06,148.06-66.29,148.06-148.06S229.83,0,148.06,0Zm67.04,134.23s-9.33-.39-16.25-2.22c-9.65-2.58-15.83-6.55-15.83-6.55,0,0-4.29-2.84-4.61-3.03v54.5c0,3.03-.8,10.61-3.21,16.93-2.11,5.4-5.12,10.41-8.91,14.8,0,0-5.93,7.35-16.35,12.29-9.39,4.45-17.66,4.35-20.13,4.45,0,0-14.26.57-27.12-8.17l-.06-.06v.06c-4.35-3.03-8.23-6.69-11.51-10.86-4.07-5.19-6.57-11.35-7.21-13.16v-.06c-1.02-3.06-3.17-10.48-2.85-17.64.51-12.61,4.74-20.38,5.87-22.31,2.95-5.3,6.8-10.05,11.38-14.03,10.57-8.86,24.36-12.89,38.03-11.13l-.03,27.05c-2.23-.73-4.56-1.09-6.9-1.09-12.38,0-22.41,10.09-22.41,22.56s10.03,22.56,22.41,22.56c3.85,0,7.64-.99,10.99-2.9,6.53-3.71,10.78-10.42,11.35-17.91v-.06c.02-.08.02-.15.02-.23,0-.18.03-.34.03-.5.06-1.35.06-2.71.06-4.09v-102.74h26.57s-.32,2.55.35,6.48h-.03c.8,4.74,2.98,11.51,8.81,18.19,2.33,2.52,4.96,4.75,7.82,6.65.98.64,2,1.23,3.05,1.77,6.79,3.39,13.43,4.42,16.7,4.06v26.38Z"/>
</svg>